<svg xmlns="http://www.w3.org/2000/svg" viewBox="0 0 310.29 56"><defs><style>.cls-1{font-size:46.21px;fill:#fff;font-family:Roboto-Light, Roboto;letter-spacing:0.05em;}.cls-2{fill:#e64525;}.cls-3{fill:#f8f1e6;}.cls-4{fill:none;stroke:#fff;stroke-miterlimit:10;}</style></defs><title>Asset 5</title><g id="Layer_2" data-name="Layer 2"><g id="Layer_1-2" data-name="Layer 1"><text class="cls-1" transform="translate(101.23 43.48) scale(0.95 1)">ENROUTE</text><g id="Layer_2-2" data-name="Layer 2"><path class="cls-2" d="M22.76,17.93a.75.75,0,0,1,1.46.19l1.2,14.06,2.25-8.13a.75.75,0,0,1,1.46,0l1.26,5.45,2.14-9A.75.75,0,0,1,34,20.6L35.62,32l.72-2.32a.75.75,0,0,1,.72-.53H54V25.27a6.49,6.49,0,0,0-6.49-6.49H37.22V8.48A6.49,6.49,0,0,0,30.73,2H26.39a6.49,6.49,0,0,0-6.49,6.49V18.78H9.59A6.49,6.49,0,0,0,3.1,25.27v4H18.7Z"/><path class="cls-2" d="M36.06,35.67a.75.75,0,0,1-1.47-.12L33.08,24.76l-2,8.25a.75.75,0,0,1-.73.58h0a.75.75,0,0,1-.73-.58l-1.31-5.69-2.58,9.3a.75.75,0,0,1-.73.55H25a.75.75,0,0,1-.68-.69L23,21.68l-3.07,8.56a.75.75,0,0,1-.71.5H3.2a6.49,6.49,0,0,0,6.39,5.36H19.89V46.41a6.49,6.49,0,0,0,6.49,6.49h4.34a6.49,6.49,0,0,0,6.49-6.49V36.11H47.52a6.49,6.49,0,0,0,6.41-5.44H37.61Z"/><path class="cls-3" d="M56.65,29.16H37.05a.75.75,0,0,0-.72.53L35.62,32,34,20.6a.75.75,0,0,0-1.48-.07l-2.14,9-1.26-5.45a.75.75,0,0,0-1.46,0l-2.25,8.13-1.2-14.06a.75.75,0,0,0-1.46-.19L18.71,29.24H.75a.75.75,0,0,0,0,1.51H19.23a.75.75,0,0,0,.71-.5L23,21.68l1.27,14.8a.75.75,0,0,0,.68.69H25a.75.75,0,0,0,.73-.55l2.58-9.3L29.65,33a.75.75,0,0,0,.73.58h0a.75.75,0,0,0,.73-.58l2-8.25,1.51,10.79a.75.75,0,0,0,1.47.12l1.55-5h19a.75.75,0,0,0,0-1.51Z"/></g><line class="cls-4" x1="79.37" x2="79.37" y2="54.9"/></g></g></svg>