<svg xmlns="http://www.w3.org/2000/svg" viewBox="0 0 306.49 54.9"><defs><style>.cls-1{fill:#fff;}.cls-2{fill:#e64525;}.cls-3{fill:#f8f1e6;}</style></defs><title>Asset 8</title><g id="Layer_2" data-name="Layer 2"><g id="Layer_1-2" data-name="Layer 1"><path class="cls-1" d="M122.4,27.73H107.81v13.4h16.78v2.35H105.17V10.63h19.31V13H107.81V25.39H122.4Z"/><path class="cls-1" d="M155.56,43.48h-2.64L135,15.37V43.48h-2.66V10.63H135l18,28.14V10.63h2.61Z"/><path class="cls-1" d="M177.34,29.78h-9.06v13.7h-2.66V10.63h10.14q5,0,7.8,2.55a9.13,9.13,0,0,1,2.81,7.12,9.2,9.2,0,0,1-1.76,5.57,9,9,0,0,1-4.71,3.33l7.8,14v.29h-2.81Zm-9.06-2.35h8.08a7.26,7.26,0,0,0,5.34-2,6.92,6.92,0,0,0,2-5.15,7,7,0,0,0-2.1-5.4A8.42,8.42,0,0,0,175.71,13h-7.44Z"/><path class="cls-1" d="M218.79,28.84a19.85,19.85,0,0,1-1.49,8,11.82,11.82,0,0,1-4.25,5.28,11.21,11.21,0,0,1-6.39,1.85,10.85,10.85,0,0,1-8.83-4.12q-3.36-4.12-3.36-11.11V25.32a19.72,19.72,0,0,1,1.51-8A12,12,0,0,1,200.26,12,11.88,11.88,0,0,1,213,12a11.85,11.85,0,0,1,4.25,5.17,19.44,19.44,0,0,1,1.56,7.74Zm-2.64-3.56q0-5.93-2.55-9.3a8.88,8.88,0,0,0-13.92,0q-2.58,3.37-2.58,9.42v3.43q0,5.84,2.57,9.26a8.88,8.88,0,0,0,14,0q2.51-3.37,2.51-9.4Z"/><path class="cls-1" d="M249.12,10.63V33.06a11.83,11.83,0,0,1-1.39,5.78,9.33,9.33,0,0,1-3.87,3.78,12.08,12.08,0,0,1-5.73,1.32,11,11,0,0,1-7.9-2.83,10.65,10.65,0,0,1-3.07-7.84V10.63h2.61V32.85A8.8,8.8,0,0,0,232,39.29a9.26,9.26,0,0,0,12.2,0,8.8,8.8,0,0,0,2.24-6.41V10.63Z"/><path class="cls-1" d="M279.84,13H269.15v30.5h-2.64V13H255.84V10.63h24Z"/><path class="cls-1" d="M304.3,27.73H289.71v13.4h16.78v2.35H287.07V10.63h19.31V13H289.71V25.39H304.3Z"/><g id="Layer_2-2" data-name="Layer 2"><path class="cls-2" d="M22.76,17.93a.75.75,0,0,1,1.46.19l1.2,14.06,2.25-8.13a.75.75,0,0,1,1.46,0l1.26,5.45,2.14-9A.75.75,0,0,1,34,20.6L35.62,32l.72-2.32a.75.75,0,0,1,.72-.53H54V25.27a6.49,6.49,0,0,0-6.49-6.49H37.22V8.48A6.49,6.49,0,0,0,30.73,2H26.39a6.49,6.49,0,0,0-6.49,6.49V18.78H9.59A6.49,6.49,0,0,0,3.1,25.27v4H18.7Z"/><path class="cls-2" d="M36.06,35.67a.75.75,0,0,1-1.47-.12L33.08,24.76l-2,8.25a.75.75,0,0,1-.73.58h0a.75.75,0,0,1-.73-.58l-1.31-5.69-2.58,9.3a.75.75,0,0,1-.73.55H25a.75.75,0,0,1-.68-.69L23,21.68l-3.07,8.56a.75.75,0,0,1-.71.5H3.2a6.49,6.49,0,0,0,6.39,5.36H19.89V46.41a6.49,6.49,0,0,0,6.49,6.49h4.34a6.49,6.49,0,0,0,6.49-6.49V36.11H47.52a6.49,6.49,0,0,0,6.41-5.44H37.61Z"/><path class="cls-3" d="M56.65,29.16H37.05a.75.75,0,0,0-.72.53L35.62,32,34,20.6a.75.75,0,0,0-1.48-.07l-2.14,9-1.26-5.45a.75.75,0,0,0-1.46,0l-2.25,8.13-1.2-14.06a.75.75,0,0,0-1.46-.19L18.71,29.24H.75a.75.75,0,0,0,0,1.51H19.23a.75.75,0,0,0,.71-.5L23,21.68l1.27,14.8a.75.75,0,0,0,.68.69H25a.75.75,0,0,0,.73-.55l2.58-9.3L29.65,33a.75.75,0,0,0,.73.58h0a.75.75,0,0,0,.73-.58l2-8.25,1.51,10.79a.75.75,0,0,0,1.47.12l1.55-5h19a.75.75,0,0,0,0-1.51Z"/></g><rect class="cls-1" x="78.37" width="2" height="54.9"/></g></g></svg>